# xmcd CD database file
#
# Track frame offsets:
#	150
#	37892
#	54994
#	89698
#	112841
#	138336
#	168637
#	193342
#	210403
#	229961
#	254044
#
# Disc length: 3742 seconds
#
# Revision: 0
# Processed by: cddbd v1.5.2PL0 Copyright (c) Steve Scherf et al.
# Submitted via: CDex 1.51
#
DISCID=9c0e9c0b
DTITLE=Damon Carren - Magenta
DYEAR=1900
DGENRE=Blues
TTITLE0=Temper
TTITLE1=The sun is smilin
TTITLE2=Done with tryin
TTITLE3=Hey hey hey hey
TTITLE4=L.B.C.
TTITLE5=Magenta
TTITLE6=Every night...! That i sleep
TTITLE7=I know ya mine
TTITLE8=hey bonus track
TTITLE9=Whole lotta love
TTITLE10=Pretty girl leavin blues
EXTD=
EXTT0=
EXTT1=
EXTT2=
EXTT3=
EXTT4=
EXTT5=
EXTT6=
EXTT7=
EXTT8=
EXTT9=
EXTT10=
PLAYORDER=
